<?xml version="1.0" standalone="no"?>
<!DOCTYPE svg PUBLIC "-//W3C//DTD SVG 20010904//EN"
 "http://www.w3.org/TR/2001/REC-SVG-20010904/DTD/svg10.dtd">
<svg version="1.0" xmlns="http://www.w3.org/2000/svg"
 width="1225.000000pt" height="1225.000000pt" viewBox="0 0 1225.000000 1225.000000"
 preserveAspectRatio="xMidYMid meet">
<metadata>
Created by potrace 1.14, written by Peter Selinger 2001-2017
</metadata>
<g transform="translate(0.000000,1225.000000) scale(0.100000,-0.100000)"
fill="#000000" stroke="none">
<path d="M4393 8328 c-6 -18 -91 -229 -188 -468 -97 -239 -208 -514 -247 -610
-38 -96 -76 -188 -83 -205 -8 -16 -31 -75 -53 -130 -22 -55 -70 -174 -107
-265 -37 -91 -132 -327 -212 -525 -80 -198 -151 -373 -159 -389 -8 -16 -12
-31 -10 -34 3 -2 223 -4 490 -4 267 0 486 -2 486 -4 0 -5 -117 -301 -130 -329
-5 -11 -82 -202 -171 -425 -89 -223 -167 -418 -174 -435 -7 -16 -63 -156 -124
-310 -62 -154 -115 -289 -120 -300 -5 -11 -13 -31 -19 -45 -60 -145 -80 -202
-63 -185 10 11 67 79 127 150 60 72 111 132 114 135 4 4 208 244 352 415 52
63 496 586 522 616 17 20 49 58 71 85 22 27 67 80 100 119 102 119 160 189
186 219 13 16 53 64 89 105 36 42 90 106 120 141 30 36 57 67 60 70 3 3 39 46
80 95 264 314 345 411 350 415 6 5 137 163 159 192 12 16 -21 17 -551 17 -309
0 -595 0 -635 0 l-72 1 75 128 c41 70 79 134 84 142 6 8 13 22 17 30 4 8 20
38 36 65 29 49 48 82 85 148 11 17 63 109 117 202 101 174 238 413 528 918
l166 287 -643 0 -643 0 -10 -32z"/>
<path d="M7087 7512 c-3 -6 -1 -3000 2 -3012 1 -4 615 -5 631 -1 3 0 5 292 5
649 l0 647 598 3 c474 2 597 0 598 -10 0 -7 1 -300 1 -650 0 -351 3 -639 6
-639 4 -1 148 -2 320 -3 l312 -1 0 100 c1 120 1 2761 0 2857 l0 67 -317 -2
-318 -2 -2 -565 c-1 -311 -2 -577 -2 -591 l-1 -26 -595 0 c-327 0 -596 3 -596
6 -1 3 -2 267 -4 586 -1 319 -3 583 -4 587 -1 9 -630 9 -634 0z"/>
<path d="M6381 7370 c-48 -41 -119 -63 -191 -58 l-58 4 23 -31 c47 -62 58 -97
59 -176 l0 -76 42 32 c51 39 129 60 191 51 l45 -6 -16 23 c-9 12 -28 46 -42
75 -22 46 -26 64 -22 123 2 38 4 69 3 69 0 -1 -15 -14 -34 -30z"/>
<path d="M2528 6943 c-3 -4 -5 -24 -6 -43 -8 -144 -123 -325 -249 -392 -24
-13 -43 -26 -43 -29 0 -3 19 -6 43 -7 152 -6 338 -127 405 -263 12 -24 22 -39
23 -34 12 168 54 264 164 372 41 40 80 73 87 73 7 0 23 8 35 18 22 17 22 17
-30 20 -166 8 -333 116 -411 266 -7 15 -16 24 -18 19z"/>
<path d="M2729 4800 c-30 -22 -101 -40 -130 -33 -19 5 -18 3 6 -43 20 -37 26
-60 23 -96 l-3 -47 21 20 c25 24 75 39 128 39 l39 0 -20 23 c-26 27 -43 87
-37 127 6 35 6 35 -27 10z"/>
<path d="M5382 4485 c-27 -33 -134 -98 -202 -120 -64 -22 -237 -25 -284 -6
l-29 12 36 -40 c70 -78 114 -165 133 -262 9 -50 6 -159 -6 -199 -15 -52 -14
-52 38 -4 49 46 162 107 221 119 61 13 151 13 211 1 l59 -12 -34 37 c-94 104
-136 218 -130 354 2 50 6 102 9 118 8 34 3 34 -22 2z"/>
</g>
</svg>
